<svg height="480pt" viewBox="0 0 480 480" width="480pt" xmlns="http://www.w3.org/2000/svg"><path d="m472 120v232h-464v-232c.027344-8.824219 7.175781-15.972656 16-16h432c8.824219.027344 15.972656 7.175781 16 16zm0 0" fill="#bdfdff"/><path d="m48 72h384v248h-384zm0 0" fill="#5aaae7"/><path d="m472 352v24c-.027344 8.824219-7.175781 15.972656-16 16h-432c-8.824219-.027344-15.972656-7.175781-16-16v-24zm0 0" fill="#e0e0e2"/><path d="m48 8h384v64h-384zm0 0" fill="#00ccb3"/><path d="m312 440v32h-144v-32zm0 0" fill="#3e3d42"/><path d="m208 392h64v48h-64zm0 0" fill="#787680"/><path d="m408 216h-56v-56c30.929688 0 56 25.070312 56 56zm0 0" fill="#c2fb3b"/><path d="m352 240h32c0 30.929688-25.070312 56-56 56s-56-25.070312-56-56c-.011719-3.898438.390625-7.785156 1.199219-11.601562 5.480469-25.886719 28.339843-44.40625 54.800781-44.398438v56zm0 0" fill="#ffda44"/><g fill="#d80027"><path d="m208 104h32v120h-32zm0 0"/><path d="m144 128h32v96h-32zm0 0"/><path d="m80 168h32v56h-32zm0 0"/><path d="m112 272c0 8.835938-7.164062 16-16 16s-16-7.164062-16-16 7.164062-16 16-16 16 7.164062 16 16zm0 0"/></g><path d="m456 96h-16v-88c0-4.417969-3.582031-8-8-8h-384c-4.417969 0-8 3.582031-8 8v88h-16c-13.253906 0-24 10.746094-24 24v256c0 13.253906 10.746094 24 24 24h176v32h-32c-4.417969 0-8 3.582031-8 8v24h-16v16h192v-16h-16v-24c0-4.417969-3.582031-8-8-8h-32v-32h176c13.253906 0 24-10.746094 24-24v-256c0-13.253906-10.746094-24-24-24zm-32 216h-368v-232h368zm0-296v48h-368v-48zm-400 96h16v208c0 4.417969 3.582031 8 8 8h384c4.417969 0 8-3.582031 8-8v-208h16c4.417969 0 8 3.582031 8 8v224h-448v-224c0-4.417969 3.582031-8 8-8zm280 352h-128v-16h128zm-40-32h-48v-32h48zm192-48h-432c-4.417969 0-8-3.582031-8-8v-16h448v16c0 4.417969-3.582031 8-8 8zm0 0"/><path d="m72 32h16v16h-16zm0 0"/><path d="m104 32h16v16h-16zm0 0"/><path d="m136 32h16v16h-16zm0 0"/><path d="m248 104c0-4.417969-3.582031-8-8-8h-32c-4.417969 0-8 3.582031-8 8v112h-16v-88c0-4.417969-3.582031-8-8-8h-32c-4.417969 0-8 3.582031-8 8v88h-16v-48c0-4.417969-3.582031-8-8-8h-32c-4.417969 0-8 3.582031-8 8v48h-8v16h192v-16h-8zm-160 112v-40h16v40zm64 0v-80h16v80zm64 0v-104h16v104zm0 0"/><path d="m384 232h-48v-48c0-4.417969-3.582031-8-8-8-35.347656 0-64 28.652344-64 64s28.652344 64 64 64 64-28.652344 64-64c0-4.417969-3.582031-8-8-8zm-56 56c-24.96875.023438-45.789062-19.101562-47.875-43.984375-2.089844-24.886719 15.25-47.210937 39.875-51.351563v47.335938c0 4.417969 3.582031 8 8 8h47.335938c-3.933594 23.082031-23.921876 39.96875-47.335938 40zm0 0"/><path d="m352 152c-4.417969 0-8 3.582031-8 8v56c0 4.417969 3.582031 8 8 8h56c4.417969 0 8-3.582031 8-8-.039062-35.328125-28.671875-63.960938-64-64zm8 56v-39.335938c20.128906 3.441407 35.894531 19.207032 39.335938 39.335938zm0 0"/><path d="m96 248c-13.253906 0-24 10.746094-24 24s10.746094 24 24 24 24-10.746094 24-24-10.746094-24-24-24zm0 32c-4.417969 0-8-3.582031-8-8s3.582031-8 8-8 8 3.582031 8 8-3.582031 8-8 8zm0 0"/><path d="m280 96h16v16h-16zm0 0"/><path d="m312 96h96v16h-96zm0 0"/><path d="m280 128h32v16h-32zm0 0"/><path d="m136 264h120v16h-120zm0 0"/></svg>