<svg width="32" height="32" viewBox="0 0 32 32" fill="none" xmlns="http://www.w3.org/2000/svg">
<path d="M29.1875 3.8125H2.8125C2.37956 3.8125 1.97425 3.91894 1.60756 4.09438L15.9375 18.4243L19.1493 15.3376C19.1493 15.3376 19.1496 15.3373 19.1496 15.3372C19.1497 15.3371 19.1499 15.3369 19.1499 15.3369L30.3929 4.09462C30.0261 3.91906 29.6206 3.8125 29.1875 3.8125Z" fill="white"/>
<path d="M31.7185 5.42041L21.1383 16L31.7181 26.5798C31.8936 26.2132 32 25.8078 32 25.3749V6.62491C32 6.19222 31.8938 5.78697 31.7185 5.42041Z" fill="white"/>
<path d="M0.281875 5.41992C0.106438 5.78661 0 6.19192 0 6.62486V25.3749C0 25.8075 0.106312 26.2129 0.281625 26.5795L10.8618 15.9999L0.281875 5.41992Z" fill="white"/>
<path d="M19.8126 17.3258L16.6004 20.4129C16.4172 20.596 16.1774 20.6876 15.9376 20.6876C15.6977 20.6876 15.4578 20.596 15.2747 20.4129L12.1875 17.3257L1.60712 27.9054C1.97387 28.0809 2.37943 28.1875 2.81249 28.1875H29.1875C29.6204 28.1875 30.0257 28.0811 30.3924 27.9056L19.8126 17.3258Z" fill="white"/>
</svg>
