<svg width="24" height="25" viewBox="0 0 24 25" fill="none" xmlns="http://www.w3.org/2000/svg">
<g clip-path="url(#clip0)">
<path d="M17.3046 8.63202C17.6708 8.99823 17.6708 9.59186 17.3046 9.95789L11.0153 16.2474C10.649 16.6134 10.0556 16.6134 9.68939 16.2474L6.69543 13.2532C6.32922 12.8872 6.32922 12.2936 6.69543 11.9276C7.06146 11.5613 7.65509 11.5613 8.02112 11.9276L10.3522 14.2587L15.9787 8.63202C16.3449 8.26599 16.9385 8.26599 17.3046 8.63202ZM24 12.4397C24 19.0727 18.6321 24.4397 12 24.4397C5.367 24.4397 0 19.0718 0 12.4397C0 5.8067 5.36792 0.439697 12 0.439697C18.633 0.439697 24 5.80762 24 12.4397ZM22.125 12.4397C22.125 6.84308 17.5959 2.3147 12 2.3147C6.40338 2.3147 1.875 6.84381 1.875 12.4397C1.875 18.0363 6.40411 22.5647 12 22.5647C17.5966 22.5647 22.125 18.0356 22.125 12.4397Z" fill="#3366CC"/>
</g>
<defs>
<clipPath id="clip0">
<rect y="0.439697" width="24" height="24" fill="white"/>
</clipPath>
</defs>
</svg>
