<svg xmlns="http://www.w3.org/2000/svg" width="1112.1" height="678.1" viewBox="0 0 1112.1 678.1"><defs><style>.cls-1{fill:#fe671c;}.cls-2{fill:#fe0fb3;}.cls-3{fill:#4e41ff;}.cls-4{fill:#d81a34;}.cls-5{fill:#6ba202;}.cls-6{fill:#83e0fa;}.cls-7{fill:#0158a1;}.cls-8{fill:#fff;}</style></defs><title>Asset 2</title><g id="Layer_2" data-name="Layer 2"><g id="Layer_1-2" data-name="Layer 1"><path class="cls-1" d="M600.2.1C655.8,0,711.4.1,767,0V231.1H600.3V78.3Q600.15,39.3,600.2.1Z"/><path class="cls-2" d="M240.9,33.8H434V183.3H319c-.1,16,0,31.9,0,47.9H240.9V33.8Z"/><path class="cls-3" d="M472.1,78.3H600.2V183.2H472.1Z"/><path class="cls-4" d="M766.9,112.7q146.55.15,293.1,0c-.1,39.5,0,78.9,0,118.4H766.9C767,191.6,766.9,152.2,766.9,112.7Z"/><path class="cls-5" d="M51.1,138c63.2-.3,126.5-.1,189.8-.1v93.2H51.1C51.2,200.1,51.2,169,51.1,138Z"/><path class="cls-6" d="M319.1,183.3H600.2v47.9q-140.55.15-281.2,0C319.1,215.2,319,199.2,319.1,183.3Z"/><path class="cls-2" d="M240.9,455.5H319v60.6H240.9Z"/><path class="cls-6" d="M319,455.5H600.2c.1,42.6,0,85.2,0,127.8q-140.55.15-281.2,0c.1-22.4,0-44.8,0-67.2Z"/><path class="cls-1" d="M600.2,455.5H767c0,33.6-.1,67.1.1,100.7-.2,40.6.1,81.2-.1,121.8-55.4,0-110.7-.2-166.1.1-.9-3-.5-6.2-.6-9.3V583.5Q600.15,519.3,600.2,455.5Z"/><path class="cls-4" d="M766.9,455.5H1060c-.1,33.8.1,67.6-.1,101.4H965.4c-13.7-.2-27.3.3-41-.2-10.3.5-20.7.1-31,.2-10-.2-20,.3-30-.2-13.3.4-26.7.4-40,0-13.7.3-27.3.4-41,0a138.37,138.37,0,0,1-14.4.2l-1-.6C766.9,522.6,767,489,766.9,455.5Z"/><path class="cls-7" d="M1111.9,231.1H600.3q-140.55.15-281.2,0H0V455.4H1112.1C1111.8,380.7,1111.9,305.9,1111.9,231.1Z"/><path class="cls-8" d="M206.2,274.1q-19.5,46.65-38.9,93.3c-1.5,3.4-2.6,7-4.6,10.1-14.3-34.4-29.1-68.7-43.2-103.2-9.2-.2-18.5,0-27.7-.1-.1,45.4,0,90.7,0,136.1h18.4c.1-37.4-.1-74.9.1-112.3,15.3,37.4,30.8,74.7,46,112.2,4.2.1,8.3.1,12.5.1,8.8-21,17.3-42.1,26-63.1,6.6-16.4,13.7-32.7,20-49.2.4,37.4.1,74.9.2,112.3,6.2,0,12.5,0,18.9-.2v-136C224.7,274.1,215.4,274.2,206.2,274.1Z"/><path class="cls-8" d="M299.4,317.2A45.63,45.63,0,0,0,267.5,329c-10.2,9.2-15.6,23.1-15,36.8-.3,15.7,7.3,31.9,21,40.1,11.8,7.3,26.5,8.1,39.8,5.4,10.5-2.3,19.6-8.6,26.3-16.8-3.7-4.2-8.6-7.2-13.1-10.5-4.7,6.2-11.3,11.3-19,13a34.37,34.37,0,0,1-26.4-6.1,25.56,25.56,0,0,1-10.2-19.7H344c.9-14.5-1.8-30.2-11.9-41C324,321,311.4,316.7,299.4,317.2ZM271,357.1A27.85,27.85,0,0,1,282.9,336a29.72,29.72,0,0,1,30.3-2c8.3,4.3,12.3,14,12.2,23.1C307.3,357.1,289.1,357.2,271,357.1Z"/><path class="cls-8" d="M434,332.3c-7.2-10.3-20-15.9-32.5-15.4-12.5-.3-25.3,4.8-33.7,14.1-8.6,9.3-12.6,22.1-12.1,34.6-.3,12.5,4.7,25.4,14.2,33.7,8.5,7.7,20.2,11.1,31.5,11h49.8q0-68.1.1-136.2H434.1C434,293.5,434.1,312.9,434,332.3Zm-5.4,51.6c-10.2,15.8-36.1,16.7-47.7,2.2-8.3-10.9-9.1-26.7-2.6-38.7a27.14,27.14,0,0,1,19.3-13.7c9.8-2,20.8.5,27.8,7.9C435.9,352.7,436.6,371.2,428.6,383.9Z"/><ellipse class="cls-8" cx="482.55" cy="364.7" rx="12.25" ry="64.4"/><ellipse class="cls-8" cx="482.55" cy="296" rx="12.23" ry="12.44"/><path class="cls-8" d="M588.5,344.6c-.8-8.6-5.3-16.9-12.7-21.4-9.6-6.2-21.5-6.9-32.6-5.9-10.6,1.5-21.3,5.4-28.9,13.2,3,3.2,6.4,6.1,9.1,9.7,2.2.9,3.9-1,5.5-2.1a33.2,33.2,0,0,1,18.5-7.2c6.9-.6,14.7.7,19.7,6.1,4.5,4.4,5.7,11,5,17.1-.9-.2-2.8-.5-3.7-.7-6.6,1-13.4.1-20.1.8-9.9,1.1-20.1,3.2-28.3,9.2a25.44,25.44,0,0,0-10.3,21.3,22.06,22.06,0,0,0,7.4,18.4c6.7,5.5,15.7,7.3,24.3,7.2,15.7-.1,31.5.1,47.2-.1C588.5,388.3,588.7,366.5,588.5,344.6ZM568.7,387c-3.9,7.2-12.1,11.5-20.2,11.5-5.3.1-11.2,0-15.8-3.1-5.2-3.2-6.8-10.2-5.1-15.8,1.8-5.4,7.2-8.5,12.4-10.2,10.4-3.3,21.4-3,32.3-3C572.5,373.4,572.4,380.8,568.7,387Z"/><path class="cls-8" d="M726.3,274.4q-21.45,51.6-43,103.3c-2.7-4.8-4.5-10.1-6.7-15.1-12.3-29.5-24.8-58.9-37.1-88.3H611.9V410.4c6.3,0,12.5.1,18.8-.1V307.7a51.52,51.52,0,0,1,.5-9.6c.9,4.6,3.1,8.8,4.8,13.1,13.4,33,27.2,65.9,40.5,99a111,111,0,0,0,12.9,0c12.7-31.8,26-63.3,38.9-95,2.1-5.7,5-11.2,6.5-17.1a48.87,48.87,0,0,1,.5,6.6c-.1,15,0,30-.1,45a13.31,13.31,0,0,0,.5,4,10.23,10.23,0,0,0-.5,3.9v52.6c6.2.2,12.4.1,18.6.1V274.4Z"/><path class="cls-8" d="M838,326.1c-7.4-6.6-17.6-9.2-27.4-9.2-13.8-.6-28.2,3.7-38.2,13.5,3.5,3.5,7,7,10.3,10.7,5.2-3.8,10.6-8.1,17.2-9.4,8.7-1.9,19.3-1.4,25.7,5.7,4.2,4.4,5.2,10.7,4.5,16.5-15.6-.1-32-1-46.4,6-7.9,3.7-14.4,10.9-15.7,19.7-.7,5.9-.7,12.3,2.3,17.6,4.9,8.9,15.6,12.5,25.1,13,17.1.2,34.2.1,51.3.1q0-31.35.1-62.7C846.9,339.6,843.9,331.5,838,326.1ZM826.7,387c-3.9,7.3-12.1,11.5-20.2,11.5-6,.2-12.7-.3-17.5-4.4a14.2,14.2,0,0,1-2.1-17.1c2.3-3.8,6.5-5.9,10.5-7.4,10.5-3.5,21.8-3.1,32.9-3.2C830.5,373.4,830.5,380.9,826.7,387Z"/><path class="cls-8" d="M904.7,395.2c-6.4-2.3-7.2-10-7.4-15.8-.2-15.1-.1-30.2-.1-45.3,8.2,0,16.5.1,24.8,0V319c-8.2,0-16.5.1-24.8,0V293.8H880V319H859.9c-.1,5.1,0,10.1,0,15.2H880v53.4c.1,7.1,1.7,15.1,7.6,19.8,7.6,5.7,17.8,5.6,26.9,4.5,2.7-.6,6-.8,8.1-2.8.2-5.1,0-10.2.1-15.5C917.1,396,910.6,397,904.7,395.2Z"/><path class="cls-8" d="M1009.5,324.3a31,31,0,0,0-21-7.5c-10.5,0-20.9.1-31.4,0V274c-5.8,0-11.7.1-17.5,0-.2,1.1-.3,2.2-.4,3.4V410.1c5.9.2,11.8.1,17.7.1V360.6c.3-9,3.5-18.9,11.5-23.9,8.4-5.2,20.8-5.4,28.2,1.7,5.6,5.4,6.6,13.8,6.3,21.2v50.6c5.8,0,11.5.1,17.3,0V354.6C1020.8,343.8,1018.2,331.7,1009.5,324.3Z"/></g></g></svg>